# xmcd CD database file
#
# Track frame offsets:
#	150
#	8320
#	15887
#	18447
#	23622
#	34390
#	39465
#	54030
#	58305
#	64042
#	69510
#	74107
#	83915
#	89690
#	96292
#	107065
#	125325
#	136182
#	143245
#	163120
#	170395
#	180412
#	197975
#	201367
#	207182
#	216220
#	226047
#	236360
#	245492
#
# Disc length: 3333 seconds
#
# Revision: 0
# Processed by: cddbd v1.5.2PL0 Copyright (c) Steve Scherf et al.
# Submitted via: CDex 1.70beta2
#
DISCID=8c0d031d
DTITLE=小泉文夫 - 小泉文夫の遺産民族音楽の礎-01ナイルの歌-民衆の生活の歌
DYEAR=1966
DGENRE=World
TTITLE0=誕生の歌
TTITLE1=割礼の歌
TTITLE2=子守歌
TTITLE3=ハーティ・ヤ・マーティ (アルマント村のわらべ歌)
TTITLE4=まりつき歌 (アルマント村のわらべ歌)
TTITLE5=まりつき数え歌 (アルマント村のわらべ歌)
TTITLE6=ヤバーラ (アルマント村のわらべ歌)
TTITLE7=ラマダンの祭りの歌 (アルマント村のわらべ歌)
TTITLE8=サラムアレイクムの替歌 (アルマント村のわらべ歌)
TTITLE9=ブレラ・ブレラ (ルクソル・女王谷小学校のわらべうた)
TTITLE10=泥棒はだれ (ルクソル・女王谷小学校のわらべうた)
TTITLE11=まりつき歌 (ルクソル・女王谷小学校のわらべうた)
TTITLE12=まりつき歌の説明 (ルクソル・女王谷小学校のわらべうた)
TTITLE13=数え歌 (ルクソル・女王谷小学校のわらべうた)
TTITLE14=サル・ハワダーヤ (結婚式の歌)
TTITLE15=祝福の歌 (結婚式の歌)
TTITLE16=巡礼の歌 (メッカへの巡礼の歌)
TTITLE17=巡礼を迎える歌 (メッカへの巡礼の歌)
TTITLE18=自作自演の民謡と説明 (自作自演の民謡と動物のせり市)
TTITLE19=動物のせり売りの声 (自作自演の民謡と動物のせり市)
TTITLE20=エルゴット村のサーキア (井戸水を汲む歌と説明)
TTITLE21=ゴロナ村のサーキア (井戸水を汲む歌と説明)
TTITLE22=老人の話と歌 (井戸水を汲む歌と説明)
TTITLE23=石を運ぶ歌 (仕事歌/手拍子の歌)
TTITLE24=土を運ぶ歌 (仕事歌/手拍子の歌)
TTITLE25=ハマーム村のカファーファ (仕事歌/手拍子の歌)
TTITLE26=アディード (ファイユーム村) (葬式の歌)
TTITLE27=水死の場合のアディード (葬式の歌)
TTITLE28=ナドブ (葬式の騒ぎ唄)
EXTD=YEAR: 1966
EXTT0=
EXTT1=
EXTT2=
EXTT3=
EXTT4=
EXTT5=
EXTT6=
EXTT7=
EXTT8=
EXTT9=
EXTT10=
EXTT11=
EXTT12=
EXTT13=
EXTT14=
EXTT15=
EXTT16=
EXTT17=
EXTT18=
EXTT19=
EXTT20=
EXTT21=
EXTT22=
EXTT23=
EXTT24=
EXTT25=
EXTT26=
EXTT27=
EXTT28=
PLAYORDER=
